<svg xmlns="http://www.w3.org/2000/svg" xmlns:xlink="http://www.w3.org/1999/xlink" version="1.1" id="Layer_1" x="0px" y="0px" style="enable-background:new 0 0 2000 2000;" xml:space="preserve" viewBox="277.72 438.73 1444.57 1122.55">
<rect style="fill:none;" width="2000" height="2000"/>
<path d="M1344.131,1241.318l77.517,28.213c61.727,22.467,82.648-25.186,102.188-78.871s34.143-103.637-27.584-126.104  l-77.517-28.213L1344.131,1241.318z M1458.129,1094.241l10.645,3.875c20.656,7.518,20.109,17.07-0.059,72.48  c-20.169,55.413-25.896,63.098-46.552,55.58l-10.645-3.875L1458.129,1094.241z M1200.586,1189.072l124.011,45.137l15.88-43.63  l-70.617-25.702l14.841-40.776l63.744,23.201l15.255-41.914l-63.744-23.201l12.752-35.033l68.045,24.767l15.877-43.623  l-121.438-44.199L1200.586,1189.072z M1123.917,1161.166l53.408,19.439l74.604-204.975l-53.408-19.44L1123.917,1161.166z   M987.831,1111.635l53.401,19.438l30.721-84.404l63.735,23.197l15.255-41.914l-63.734-23.197l12.751-35.033l68.042,24.765  l15.877-43.623l-121.443-44.202L987.831,1111.635z M911.176,1083.735l53.393,19.433l74.605-204.975l-53.394-19.433L911.176,1083.735  z M862.385,877.408l10.338,3.763c16.08,5.852,20.071,15.432,14.01,32.085c-5.325,14.633-16.064,21.789-31.276,16.252l-10.626-3.868  L862.385,877.408z M748.378,1024.481l53.402,19.437l29.884-82.106l14.071,5.122c12.919,4.701,15.323,12.396,6.852,35.672  l-5.013,13.773c-3.135,8.611-10.239,28.131-9.044,40.915l56.851,20.692l1.044-2.866c-2.828-2.98-3.133-5.677-3.733-8.509  c-1.118-4.962,3.894-18.734,7.763-29.361l6.374-17.514c9.932-27.286,8.124-46.452-16.867-58.168l0.206-0.567  c25.756,5.151,42.859-8.792,52.787-36.07c11.495-31.583,4.348-60.176-36.424-75.016l-83.548-30.409L748.378,1024.481z   M604.819,972.231l124.035,45.144l15.88-43.629l-70.633-25.708l14.841-40.775l63.739,23.199l15.256-41.914l-63.74-23.199  l12.752-35.033l68.046,24.767l15.877-43.622l-121.448-44.204L604.819,972.231z M483.087,927.924l68.903,25.079l118.825-188.879  l-56.847-20.691l-77.746,146.612l-0.578-0.211l34.682-162.285l-56.852-20.692L483.087,927.924z M864.317,1372.791l38.672-38.115  l52.997,11.842l-24.305-48.57l27.636-46.747l-53.701,8.124l-35.907-40.738l-8.877,53.574l-49.834,21.586l48.204,24.993  L864.317,1372.791z M1068.916,1382.457l22.618-22.303l31.02,6.919l-14.229-28.411l16.171-27.342l-31.419,4.756l-21.005-23.837  l-5.188,31.34l-29.158,12.619l28.196,14.634L1068.916,1382.457z M701.383,1248.686L724,1226.383l31.005,6.914l-14.224-28.409  l16.171-27.343l-31.409,4.76l-21.006-23.837l-5.197,31.336l-29.153,12.622l28.201,14.635L701.383,1248.686z M1135.687,627.211  l5.126,54.053l48.209,24.996l-49.838,21.581l-8.881,53.579l-35.915-40.742l-53.692,8.128l27.639-46.753l-24.302-48.564  l52.993,11.838L1135.687,627.211z M1298.631,751.32l2.99,31.623l28.212,14.636l-29.162,12.616l-5.189,31.345l-21.01-23.843  l-31.414,4.762l16.172-27.347l-14.226-28.408l31.005,6.918L1298.631,751.32z M931.097,617.549l2.99,31.624l28.197,14.63  l-29.157,12.618l-5.19,31.344l-20.999-23.839l-31.415,4.762l16.162-27.351l-14.22-28.405l31.009,6.919L931.097,617.549z   M1321.274,1317.62l-771.533-280.815c4.42,53.686,18.43,105.859,40.915,154.077c48.855,104.756,137.666,190.892,254.866,233.549  c117.21,42.661,240.614,33.765,345.361-15.084C1239.098,1386.861,1283.381,1355.904,1321.274,1317.62z M1400.472,1346.445  l-46.591-16.957c-42.702,45.803-93.673,82.539-149.59,108.611c-112.117,52.296-244.184,61.799-369.62,16.144  c-125.423-45.65-220.482-137.819-272.763-249.95c-26.073-55.916-41.503-116.82-44.774-179.356l-46.596-16.959  c1.141,75.271,18.443,148.763,49.678,215.763c57.249,122.778,161.353,223.733,298.722,273.731  c137.373,49.999,282.015,39.581,404.8-17.67C1290.727,1448.552,1351.211,1403.372,1400.472,1346.445z M678.741,682.379  l771.533,280.815c-4.422-53.679-18.441-105.87-40.92-154.09c-48.848-104.735-137.663-190.872-254.873-233.532  c-117.2-42.657-240.6-33.761-345.354,15.067C760.906,613.127,716.633,644.102,678.741,682.379z M599.539,653.552l46.596,16.959  c42.703-45.817,93.67-82.534,149.585-108.61c112.125-52.289,244.19-61.792,369.613-16.142  c125.437,45.655,220.496,137.824,272.77,249.951c26.075,55.918,41.513,116.804,44.779,179.353l46.59,16.957  c-1.146-75.267-18.439-148.755-49.668-215.754c-57.259-122.781-161.363-223.74-298.736-273.739  c-137.368-49.998-282.011-39.576-404.785,17.679C709.287,551.453,648.799,596.63,599.539,653.552z M1191.917,472.718  c145.602,52.994,255.94,159.992,316.625,290.13c34.775,74.586,53.243,156.776,52.718,240.742l161.025,58.608l-151.868,145.415  l22.868,209.011l-161.025-58.608c-53.572,64.665-120.55,115.755-195.13,150.531c-130.14,60.686-283.441,71.731-429.043,18.737  c-145.592-52.991-255.939-159.997-316.628-290.139c-34.767-74.576-53.235-156.766-52.698-240.734l-161.046-58.615L429.597,792.39  L406.716,583.37l161.046,58.615c53.569-64.659,120.538-115.753,195.11-150.54C893.016,430.764,1046.326,419.727,1191.917,472.718z"/>
</svg>